HIERARCHY
ROOT Hips
{
	OFFSET -3.958830 18.904000 13.208200
	CHANNELS 6 Xposition Yposition Zposition Zrotation Yrotation Xrotation 
	JOINT LHipJoint
	{
		OFFSET 0.000000 0.000000 0.000000
		CHANNELS 3 Zrotation Yrotation Xrotation
		JOINT LeftUpLeg
		{
			OFFSET 1.800000 -1.400000 0.085000
			CHANNELS 3 Zrotation Yrotation Xrotation
			JOINT LeftLeg
			{
				OFFSET 2.215000 -6.000000 0.000000
				CHANNELS 3 Zrotation Yrotation Xrotation
				JOINT LeftFoot
				{
					OFFSET 2.500000 -6.900000 0.000000
					CHANNELS 3 Zrotation Yrotation Xrotation
					JOINT LeftToeBase
					{
						OFFSET 0.200000 -0.500000 1.950000
						CHANNELS 3 Zrotation Yrotation Xrotation
						End Site
						{
							OFFSET 0.000000 0.000000 0.000000
						}
					}
				}
			}
		}
	}
	JOINT RHipJoint
	{
		OFFSET 0.000000 0.000000 0.000000
		CHANNELS 3 Zrotation Yrotation Xrotation
		JOINT RightUpLeg
		{
			OFFSET -1.800000 -1.400000 0.085000
			CHANNELS 3 Zrotation Yrotation Xrotation
			JOINT RightLeg
			{
				OFFSET -2.215000 -6.000000 0.000000
				CHANNELS 3 Zrotation Yrotation Xrotation
				JOINT RightFoot
				{
					OFFSET -2.500000 -6.900000 0.000000
					CHANNELS 3 Zrotation Yrotation Xrotation
					JOINT RightToeBase
					{
						OFFSET -0.200000 -0.500000 1.950000
						CHANNELS 3 Zrotation Yrotation Xrotation
						End Site
						{
							OFFSET 0.000000 0.000000 0.000000
						}
					}
				}
			}
		}
	}
	JOINT LowerBack
	{
		OFFSET 0.000000 0.000000 0.000000
		CHANNELS 3 Zrotation Yrotation Xrotation
		JOINT Spine
		{
			OFFSET -0.087000 1.940000 -0.288900
			CHANNELS 3 Zrotation Yrotation Xrotation
			JOINT Spine1
			{
				OFFSET 0.000000 1.950000 0.060000
				CHANNELS 3 Zrotation Yrotation Xrotation
				JOINT Neck
				{
					OFFSET 0.000000 0.000000 0.000000
					CHANNELS 3 Zrotation Yrotation Xrotation
					JOINT Neck1
					{
						OFFSET 0.000000 1.600000 0.340000
						CHANNELS 3 Zrotation Yrotation Xrotation
						JOINT Head
						{
							OFFSET 0.000000 1.667000 -0.240000
							CHANNELS 3 Zrotation Yrotation Xrotation
							End Site
							{
								OFFSET 0.000000 0.000000 0.000000
							}
						}
					}
				}
				JOINT LeftShoulder
				{
					OFFSET 0.000000 0.000000 0.000000
					CHANNELS 3 Zrotation Yrotation Xrotation
					JOINT LeftArm
					{
						OFFSET 2.700000 1.550000 -0.730000
						CHANNELS 3 Zrotation Yrotation Xrotation
						JOINT LeftForeArm
						{
							OFFSET 5.450000 0.000000 0.000000
							CHANNELS 3 Zrotation Yrotation Xrotation
							JOINT LeftHand
							{
								OFFSET 3.450000 0.000000 0.000000
								CHANNELS 3 Zrotation Yrotation Xrotation
								JOINT LeftHandIndex1
								{
									OFFSET 0.750000 0.000000 0.000000
									CHANNELS 3 Zrotation Yrotation Xrotation
									End Site
									{
										OFFSET 0.000000 0.000000 0.000000
									}
								}
							}
						}
					}
				}
				JOINT RightShoulder
				{
					OFFSET 0.000000 0.000000 0.000000
					CHANNELS 3 Zrotation Yrotation Xrotation
					JOINT RightArm
					{
						OFFSET -2.700000 1.550000 -0.730000
						CHANNELS 3 Zrotation Yrotation Xrotation
						JOINT RightForeArm
						{
							OFFSET -5.450000 0.000000 0.000000
							CHANNELS 3 Zrotation Yrotation Xrotation
							JOINT RightHand
							{
								OFFSET -3.450000 0.000000 0.000000
								CHANNELS 3 Zrotation Yrotation Xrotation
								JOINT RightHandIndex1
								{
									OFFSET -0.750000 0.000000 0.000000
									CHANNELS 3 Zrotation Yrotation Xrotation
									End Site
									{
										OFFSET 0.000000 0.000000 0.000000
									}
								}
							}
						}
					}
				}
			}
		}
	}
}
MOTION
Frames: 8
Frame Time: 0.016667
-0.220080 16.093060 -1.132660 -8.410464 3.103316 9.869598 -15.260731 12.508079 2.063561 9.457752 -1.933380 -11.223672 -4.670352 4.291468 7.717286 -1.428429 4.894840 3.373700 0.865160 0.347250 0.204660 18.450210 -9.441883 3.834226 -10.612338 5.866889 -36.803142 6.566327 -1.126631 -2.635751 0.348490 -2.732553 3.742455 0.854810 1.203550 0.448280 -3.782320 -1.372905 -6.701644 7.865018 -2.272630 -0.638068 -0.626219 -2.809325 10.906926 1.025117 -0.412032 -4.797586 -0.226342 2.670259 16.598465 -2.986880 -1.649430 -0.446890 -17.721872 0.995313 2.074351 -31.280475 10.126192 -3.236353 -54.097721 -19.027507 4.223139 -4.558846 3.667817 0.056960 1.054870 -0.871190 0.666160 16.582425 -1.048189 -0.236814 16.090083 -1.568073 -2.197045 118.187533 64.350669 78.771291 1.200955 -2.045750 -0.583220 0.572030 0.051060 -0.261140 
-0.243120 16.070390 -1.139780 -7.844387 2.163539 10.284277 -15.291721 12.465828 2.003008 8.708084 -1.905644 -11.245513 -4.718883 4.373605 8.216258 -1.464460 4.978757 3.391967 0.831480 0.324650 0.150890 18.443069 -9.290755 3.943811 -11.032225 5.957457 -36.681988 6.887974 -0.695705 -5.397771 0.370999 -2.908501 3.707444 0.893380 1.318970 0.435440 -3.731702 -1.466866 -6.694973 6.551644 -2.069511 -1.218396 -0.099937 -2.639633 10.655641 0.778587 -0.340234 -4.392022 -0.126457 3.259852 16.315256 -2.914570 -1.583820 0.729720 -17.349914 1.958078 1.864097 -31.982923 9.816132 -2.861517 -53.181937 -20.153048 4.830368 -4.660658 3.659135 -0.014490 1.142380 -0.961390 0.684500 16.764249 -1.818301 -0.934197 17.210716 0.011294 -1.664461 115.797996 65.704884 77.722911 1.209198 -1.917008 -0.636660 0.630180 0.082850 -0.243260 
-0.280830 16.032930 -1.138870 -7.192344 0.960419 10.593168 -15.329614 12.495979 1.953749 8.000378 -1.882093 -11.420126 -4.247642 4.372650 8.765747 -1.548344 5.126458 3.421387 0.715210 0.199690 0.052520 18.419593 -9.225328 3.959208 -11.496122 5.895105 -36.472630 6.311574 -0.531783 -6.535911 0.452452 -3.064865 3.694394 0.906080 1.526860 0.433450 -3.646059 -1.591184 -6.618942 4.882863 -1.779698 -1.742068 0.568927 -2.347937 9.614170 0.649542 -0.101385 -3.439343 0.234001 4.116853 15.798480 -3.235080 -1.076310 2.479880 -18.251809 3.747703 1.069891 -33.767312 9.380318 -2.581063 -46.726832 -19.545627 3.749975 -4.884609 3.537965 -0.102430 1.304420 -1.108210 0.684340 18.026347 -3.453636 -2.031867 19.009400 1.712945 -1.008362 110.047069 68.398781 74.062222 1.303116 -1.540212 -0.748590 0.732600 0.179370 -0.234890 
-0.325740 16.006560 -1.121880 -6.797204 1.286458 10.742823 -15.327985 12.564293 1.965133 8.031810 -2.010852 -12.780772 -4.202501 4.573730 10.121776 -1.572855 5.242758 3.440963 0.600390 0.075100 -0.024080 18.402624 -9.370561 3.827050 -11.610228 5.549098 -35.940830 6.153530 -0.875823 -4.540790 0.561339 -3.155447 3.698529 0.884980 1.684990 0.445490 -3.618133 -1.552514 -6.497786 4.226697 -1.466807 -2.138598 0.293411 -2.064595 8.880934 0.995277 0.534325 -2.864164 1.363228 3.616154 15.113391 -4.324990 -0.808520 4.676710 -19.190575 5.159118 -0.112596 -34.824223 7.736203 -2.124726 -39.864008 -17.196599 2.219059 -5.086226 3.453236 -0.221390 1.456310 -1.242080 0.677020 18.319955 -5.494746 -2.029985 24.455776 0.537091 -1.608072 106.488963 71.369791 71.913464 1.489145 -1.071502 -0.811830 0.756950 0.237430 -0.222180 
-0.382390 16.016710 -1.089670 -6.096982 2.339699 10.137258 -15.344211 12.767589 2.048130 8.561948 -2.153879 -15.150318 -4.648586 5.355972 13.753957 -1.508408 5.441738 3.356116 0.431000 -0.130890 -0.094520 18.333526 -9.625260 3.580413 -11.828199 4.875445 -34.750624 7.760249 -1.938599 0.619168 0.628285 -3.177968 3.721113 0.739950 1.702820 0.412240 -3.482752 -1.668896 -6.374326 2.703692 -0.855935 -1.733078 0.341562 -1.439195 8.667845 1.613781 1.491589 -3.073225 2.921325 2.439015 15.347007 -4.856050 -0.560790 5.977230 -20.201868 5.379302 -0.838839 -36.681615 6.275408 -2.867597 -32.788197 -19.668574 2.224912 -5.125433 3.303239 -0.199210 1.458800 -1.267600 0.622830 18.107661 -6.699348 -0.792479 31.536978 -2.724879 -3.617935 103.112022 73.531704 68.363564 1.806097 -0.612441 -0.857100 0.746070 0.300080 -0.239300 
-0.441880 16.065970 -1.079710 -5.729484 3.388833 8.767355 -15.368004 12.925973 2.232546 9.873397 -2.451756 -19.289640 -4.865177 6.849379 20.866822 -1.355049 5.953211 3.057203 0.415080 -0.184630 -0.029680 18.263630 -9.883766 3.310163 -11.573885 4.576381 -33.245728 10.075926 -3.629655 8.082130 0.539673 -3.321695 3.659274 0.614470 1.521150 0.351270 -3.340908 -1.766150 -6.341135 1.933531 -0.296202 -0.078734 0.231205 -0.732673 8.447703 1.907215 1.816376 -3.154395 3.371888 1.138273 16.757651 -4.565400 -0.832880 4.889630 -22.897987 4.491448 -1.337854 -37.015260 5.573451 -3.967667 -26.981386 -21.781647 1.902941 -4.912556 3.161213 -0.025950 1.270650 -1.124790 0.589160 20.151377 -6.184623 0.396102 35.784941 -4.804995 -4.792308 94.317261 75.640383 59.363478 2.132466 -0.630264 -0.833230 0.713270 0.255370 -0.279150 
-0.500300 16.115100 -1.098310 -5.113896 4.262521 7.446251 -15.451861 12.696783 2.813422 11.515109 -3.571771 -26.072352 -5.445403 9.478078 31.690841 -1.032430 7.436649 2.339154 0.483040 -0.153790 0.087560 18.214226 -9.782988 3.085228 -12.366026 4.437759 -31.469262 13.898095 -5.936394 14.644147 0.307583 -3.960960 3.374384 0.517560 1.251000 0.328330 -3.147973 -1.968329 -6.642119 1.209113 0.055701 2.537698 0.603744 -0.174722 8.083439 1.642493 1.354450 -3.344760 2.359214 0.600119 18.589201 -3.999970 -1.030420 2.304920 -23.759223 4.003009 -1.619147 -38.983399 4.332739 -5.398882 -23.561915 -26.640789 2.289498 -4.640365 3.126183 0.179410 1.028320 -0.923090 0.548600 21.409439 -5.235424 1.354714 38.724228 -6.305739 -6.388784 83.729008 75.869302 49.816916 1.976185 -1.277238 -0.746970 0.622240 0.188400 -0.332930 
-0.551180 16.169860 -1.118870 -5.179867 2.307501 5.225193 -15.511618 12.255545 3.542109 14.788071 -3.996706 -30.615811 -8.106900 13.187214 39.949466 -0.642530 9.306909 1.527001 0.559270 -0.119180 0.252440 18.208573 -9.672395 2.848549 -11.814782 4.787685 -28.754740 16.312611 -8.383230 21.187281 0.000564 -4.753102 3.040502 0.433370 0.951500 0.291070 -3.043267 -1.842717 -7.162674 1.677324 1.348182 6.627374 0.314783 1.538410 7.064171 1.751245 0.857015 -3.302602 1.290085 0.148047 21.218488 -3.605220 -0.876770 -2.022900 -25.359396 3.479911 -2.106092 -39.513764 3.352171 -6.624258 -21.583748 -31.289256 2.677258 -4.353863 3.057037 0.432150 0.763390 -0.697410 0.476260 22.518983 -3.936192 1.949891 40.089140 -7.495525 -9.385026 70.369690 71.207630 37.691926 1.548919 -1.944833 -0.686360 0.557570 0.128360 -0.420350 
